<?xml version="1.0" encoding="utf-8"?>
<!-- Generator: Adobe Illustrator 18.0.0, SVG Export Plug-In . SVG Version: 6.00 Build 0)  -->
<!DOCTYPE svg PUBLIC "-//W3C//DTD SVG 1.1//EN" "http://www.w3.org/Graphics/SVG/1.1/DTD/svg11.dtd">
<svg version="1.1" id="Layer_7" xmlns="http://www.w3.org/2000/svg" xmlns:xlink="http://www.w3.org/1999/xlink" x="0px" y="0px"
	 viewBox="0 0 400 400" enable-background="new 0 0 400 400" xml:space="preserve">
<path fill="#008A23" d="M20.1,268c-0.1-2.8,0.5-5.4,1.2-8c1.1-3.8,2.3-7.6,3.3-11.5c0.7-2.6,1.2-5.2,1.6-7.8c0.7-3.8,0-7.5-1.9-10.9
	c-1.3-2.4-2.9-4.7-4.6-6.9c-2-2.6-4.2-5-6.1-7.6c-1.5-2-3-4.1-4.4-6.2c-3.8-6-3.7-12.1,0-18.1c1.3-2,2.7-4,4.2-5.9
	c1.8-2.3,3.7-4.5,5.5-6.8c1.1-1.3,2.1-2.7,3.1-4c4.3-5.7,5.5-12,3.6-18.9c-0.9-3.4-1.9-6.7-2.8-10.1c-0.7-2.7-1.5-5.4-2.1-8.1
	c-0.4-1.8-0.5-3.6-0.6-5.4c-0.2-4.4,1.4-8.1,4.7-11c2.1-1.8,4.4-3.4,6.7-4.9c3.1-1.9,6.4-3.4,9.5-5.3c2.4-1.4,4.8-2.9,7-4.5
	c3.6-2.5,5.8-6,7-10.3c1.2-4.5,1.5-9,2.1-13.6c0.4-3.4,0.9-6.7,1.5-10c0.3-1.5,0.8-3,1.4-4.5c1.5-3.7,4.1-6.3,7.8-7.7
	c2.4-0.9,4.8-1.5,7.3-2c2.6-0.5,5.3-0.6,7.9-1c3.6-0.5,7.2-0.9,10.8-1.5c5.5-1,9.9-3.8,13-8.5c1.3-2,2.6-4.1,3.8-6.2
	c1.6-2.7,2.9-5.6,4.5-8.3c1.4-2.3,2.8-4.5,4.4-6.6c4-5,9.3-6.9,15.5-5.7c3.9,0.8,7.7,1.9,11.6,2.9c3.9,1,7.7,2.1,11.6,2.9
	c4,0.9,8,0.3,11.6-1.7c2.6-1.5,5.1-3.2,7.5-5c2.7-2,5.2-4.3,7.9-6.4c2.2-1.7,4.5-3.3,6.9-4.6c5-2.8,10.2-2.9,15.2,0
	c2.5,1.4,4.9,3.1,7.2,4.8c3,2.2,5.8,4.8,8.8,7c2.1,1.6,4.4,3,6.7,4.3c3.5,1.9,7.4,2.4,11.3,1.6c3.9-0.8,7.7-1.9,11.6-2.9
	c3.7-1,7.5-2,11.2-2.9c6.7-1.4,12.2,0.6,16.3,6c1.6,2.1,3,4.4,4.4,6.7c1.6,2.8,3,5.8,4.7,8.6c1.3,2.3,2.8,4.6,4.4,6.7
	c2.5,3.3,5.7,5.5,9.7,6.6c4.1,1.2,8.3,1.6,12.5,2c3.6,0.4,7.2,0.9,10.8,1.4c0.2,0,0.5,0.1,0.7,0.1c7.2,1.6,11.8,5.8,13.4,13.1
	c1,4.6,1.3,9.3,1.9,14c0.4,3.1,0.8,6.2,1.5,9.3c1,4.8,3.6,8.7,7.7,11.5c2.6,1.8,5.3,3.4,8,4.9c2.7,1.6,5.6,2.9,8.3,4.5
	c2.1,1.2,4.1,2.7,5.9,4.2c4.1,3.4,5.9,7.9,5.2,13.2c-0.3,2.6-0.8,5.3-1.5,7.8c-1.1,4.1-2.4,8.1-3.5,12.2c-0.7,2.6-1.2,5.2-1.3,7.9
	c-0.1,3.5,0.6,6.8,2.5,9.7c1.7,2.7,3.5,5.2,5.4,7.7c2,2.7,4.3,5.2,6.3,7.9c1.6,2.1,3,4.4,4.2,6.8c2.2,4.4,2.2,8.9,0,13.3
	c-1.2,2.4-2.6,4.6-4.2,6.8c-1.9,2.6-4.1,5.1-6.1,7.7c-1.7,2.2-3.4,4.4-4.9,6.7c-3.1,4.6-3.8,9.7-2.7,14.9c0.8,3.8,1.9,7.5,3,11.2
	c1.1,4,2.3,7.9,2.8,12c0.7,6.1-1.3,11-6.1,14.6c-1.9,1.5-3.9,2.8-6,4c-2.7,1.6-5.6,3-8.3,4.5c-2.5,1.5-5,3-7.4,4.6
	c-3.8,2.7-6.2,6.4-7.3,10.9c-0.7,3.1-1.1,6.2-1.5,9.3c-0.5,4-0.9,7.9-1.5,11.9c-0.3,1.9-0.8,3.8-1.5,5.6c-1.5,4.2-4.4,7.2-8.7,8.7
	c-2.4,0.8-4.9,1.5-7.4,1.9c-2.7,0.5-5.5,0.6-8.3,0.9c-3.5,0.4-7,0.8-10.4,1.5c-5.1,1-9.2,3.6-12.1,8c-1.7,2.5-3.2,5.1-4.7,7.7
	c-1.6,2.7-2.9,5.6-4.5,8.3c-1.3,2.2-2.8,4.3-4.4,6.2c-3.8,4.4-8.7,6-14.4,5c-3.3-0.6-6.6-1.5-9.9-2.4c-4.4-1.1-8.9-2.4-13.3-3.5
	c-4.5-1.1-8.9-0.4-12.9,2c-2.6,1.5-5,3.3-7.4,5.2c-2.7,2-5.2,4.3-7.9,6.3c-2.2,1.6-4.6,3.2-7,4.4c-4.5,2.3-9.1,2.4-13.6,0
	c-2.7-1.4-5.2-3.1-7.6-4.9c-2.7-2-5.2-4.3-7.9-6.4c-2.1-1.6-4.3-3.2-6.6-4.5c-4.1-2.5-8.5-3.1-13.3-2.3c-4.5,0.8-8.9,2.3-13.3,3.5
	c-3.1,0.9-6.3,1.7-9.5,2.3c-6.1,1.2-11.3-0.6-15.2-5.5c-1.8-2.3-3.4-4.7-4.8-7.2c-1.7-2.8-3-5.8-4.7-8.6c-1.5-2.5-3-4.9-4.8-7.3
	c-2.2-3-5.3-4.9-8.9-6c-4.1-1.3-8.3-1.7-12.5-2.1c-3.7-0.4-7.4-0.9-11.1-1.4c-0.5-0.1-0.9-0.2-1.4-0.3c-7.1-1.6-11.5-6-12.9-13.2
	c-0.6-3.3-1-6.7-1.5-10c-0.5-3.7-0.9-7.4-1.5-11.1c-1-6.2-4.1-11-9.5-14.4c-2.7-1.7-5.4-3.2-8.2-4.7c-2.6-1.5-5.3-2.9-7.9-4.4
	c-1.7-1.1-3.4-2.3-5-3.7C21.7,276.6,19.8,272.7,20.1,268z"/>
<rect x="-40" y="149.7" fill="none" width="480" height="100.7"/>
<text transform="matrix(1 0 0 1 51.0206 248.4657)" fill="#FFFFFF" font-family="'OpenSans-Regular'" font-size="130">-50%</text>
</svg>
